<svg width="164" height="48" viewBox="0 0 164 48" fill="none" xmlns="http://www.w3.org/2000/svg">
<rect width="164" height="48" fill="#1E90FF"/>
<path d="M34 29.77L40.18 33.5L38.54 26.47L44 21.74L36.81 21.13L34 14.5L31.19 21.13L24 21.74L29.46 26.47L27.82 33.5L34 29.77Z" fill="white"/>
<path d="M58.032 19.4H56.192V17.8H61.632V19.4H59.792V29H58.032V19.4ZM66.9656 29.16C66.1016 29.16 65.4403 28.9147 64.9816 28.424C64.523 27.9333 64.2936 27.24 64.2936 26.344V20.456C64.2936 19.56 64.523 18.8667 64.9816 18.376C65.4403 17.8853 66.1016 17.64 66.9656 17.64C67.8296 17.64 68.491 17.8853 68.9496 18.376C69.4083 18.8667 69.6376 19.56 69.6376 20.456V26.344C69.6376 27.24 69.4083 27.9333 68.9496 28.424C68.491 28.9147 67.8296 29.16 66.9656 29.16ZM66.9656 27.56C67.5736 27.56 67.8776 27.192 67.8776 26.456V20.344C67.8776 19.608 67.5736 19.24 66.9656 19.24C66.3576 19.24 66.0536 19.608 66.0536 20.344V26.456C66.0536 27.192 66.3576 27.56 66.9656 27.56ZM72.8279 17.8H75.4199C76.2945 17.8 76.9505 18.0347 77.3879 18.504C77.8252 18.9733 78.0439 19.6613 78.0439 20.568V21.672C78.0439 22.5787 77.8252 23.2667 77.3879 23.736C76.9505 24.2053 76.2945 24.44 75.4199 24.44H74.5879V29H72.8279V17.8ZM75.4199 22.84C75.7079 22.84 75.9212 22.76 76.0599 22.6C76.2092 22.44 76.2839 22.168 76.2839 21.784V20.456C76.2839 20.072 76.2092 19.8 76.0599 19.64C75.9212 19.48 75.7079 19.4 75.4199 19.4H74.5879V22.84H75.4199ZM85.5623 17.8H88.2183C89.1249 17.8 89.7863 18.0133 90.2023 18.44C90.6183 18.856 90.8263 19.5013 90.8263 20.376V20.824C90.8263 21.4 90.7303 21.8693 90.5383 22.232C90.3569 22.5947 90.0743 22.856 89.6903 23.016V23.048C90.5649 23.3467 91.0023 24.1253 91.0023 25.384V26.344C91.0023 27.208 90.7729 27.8693 90.3143 28.328C89.8663 28.776 89.2049 29 88.3303 29H85.5623V17.8ZM88.0103 22.36C88.3623 22.36 88.6236 22.2693 88.7943 22.088C88.9756 21.9067 89.0663 21.6027 89.0663 21.176V20.552C89.0663 20.1467 88.9916 19.8533 88.8423 19.672C88.7036 19.4907 88.4796 19.4 88.1703 19.4H87.3223V22.36H88.0103ZM88.3303 27.4C88.6396 27.4 88.8689 27.32 89.0182 27.16C89.1676 26.9893 89.2423 26.7013 89.2423 26.296V25.32C89.2423 24.808 89.1516 24.456 88.9703 24.264C88.7996 24.0613 88.5116 23.96 88.1063 23.96H87.3223V27.4H88.3303ZM94.031 17.8H95.791V27.4H98.687V29H94.031V17.8ZM104.013 29.16C103.149 29.16 102.487 28.9147 102.029 28.424C101.57 27.9333 101.34 27.24 101.34 26.344V20.456C101.34 19.56 101.57 18.8667 102.029 18.376C102.487 17.8853 103.149 17.64 104.013 17.64C104.877 17.64 105.538 17.8853 105.997 18.376C106.455 18.8667 106.685 19.56 106.685 20.456V26.344C106.685 27.24 106.455 27.9333 105.997 28.424C105.538 28.9147 104.877 29.16 104.013 29.16ZM104.013 27.56C104.621 27.56 104.924 27.192 104.924 26.456V20.344C104.924 19.608 104.621 19.24 104.013 19.24C103.405 19.24 103.101 19.608 103.101 20.344V26.456C103.101 27.192 103.405 27.56 104.013 27.56ZM112.371 29.16C111.517 29.16 110.867 28.92 110.419 28.44C109.971 27.9493 109.747 27.2507 109.747 26.344V20.456C109.747 19.5493 109.971 18.856 110.419 18.376C110.867 17.8853 111.517 17.64 112.371 17.64C113.224 17.64 113.875 17.8853 114.323 18.376C114.771 18.856 114.995 19.5493 114.995 20.456V21.416H113.331V20.344C113.331 19.608 113.027 19.24 112.419 19.24C111.811 19.24 111.507 19.608 111.507 20.344V26.472C111.507 27.1973 111.811 27.56 112.419 27.56C113.027 27.56 113.331 27.1973 113.331 26.472V24.28H112.451V22.68H114.995V26.344C114.995 27.2507 114.771 27.9493 114.323 28.44C113.875 28.92 113.224 29.16 112.371 29.16ZM118.125 17.8H119.885V27.4H122.781V29H118.125V17.8ZM127.047 17.8H129.431L131.255 29H129.495L129.175 26.776V26.808H127.175L126.855 29H125.223L127.047 17.8ZM128.967 25.288L128.183 19.752H128.151L127.383 25.288H128.967ZM134.109 17.8H136.717C137.624 17.8 138.285 18.0133 138.701 18.44C139.117 18.856 139.325 19.5013 139.325 20.376V21.064C139.325 22.2267 138.941 22.9627 138.173 23.272V23.304C138.6 23.432 138.898 23.6933 139.069 24.088C139.25 24.4827 139.341 25.0107 139.341 25.672V27.64C139.341 27.96 139.352 28.2213 139.373 28.424C139.394 28.616 139.448 28.808 139.533 29H137.741C137.677 28.8187 137.634 28.648 137.613 28.488C137.592 28.328 137.581 28.04 137.581 27.624V25.576C137.581 25.064 137.496 24.7067 137.325 24.504C137.165 24.3013 136.882 24.2 136.477 24.2H135.869V29H134.109V17.8ZM136.509 22.6C136.861 22.6 137.122 22.5093 137.293 22.328C137.474 22.1467 137.565 21.8427 137.565 21.416V20.552C137.565 20.1467 137.49 19.8533 137.341 19.672C137.202 19.4907 136.978 19.4 136.669 19.4H135.869V22.6H136.509Z" fill="white"/>
</svg>
